<svg width="459" height="42" viewBox="0 0 459 42" fill="none" xmlns="http://www.w3.org/2000/svg">
<g filter="url(#filter0_d_13_110)">
<path d="M452.665 0.335938H6.33203C3.01832 0.335938 0.332031 3.02223 0.332031 6.33594V35.6693C0.332031 38.983 3.01832 41.6693 6.33203 41.6693H452.665C455.979 41.6693 458.665 38.983 458.665 35.6693V6.33594C458.665 3.02223 455.979 0.335938 452.665 0.335938Z" fill="white"/>
<path d="M452.665 0.335938H6.33203C3.01832 0.335938 0.332031 3.02223 0.332031 6.33594V35.6693C0.332031 38.983 3.01832 41.6693 6.33203 41.6693H452.665C455.979 41.6693 458.665 38.983 458.665 35.6693V6.33594C458.665 3.02223 455.979 0.335938 452.665 0.335938Z" stroke="#D1D5DB" stroke-width="0.666667"/>
</g>
<defs>
<filter id="filter0_d_13_110" x="0" y="0" width="459" height="42" filterUnits="userSpaceOnUse" color-interpolation-filters="sRGB">
<feFlood flood-opacity="0" result="BackgroundImageFix"/>
<feColorMatrix in="SourceAlpha" type="matrix" values="0 0 0 0 0 0 0 0 0 0 0 0 0 0 0 0 0 0 127 0" result="hardAlpha"/>
<feOffset/>
<feComposite in2="hardAlpha" operator="out"/>
<feColorMatrix type="matrix" values="0 0 0 0 0 0 0 0 0 0 0 0 0 0 0 0 0 0 0.08 0"/>
<feBlend mode="normal" in2="BackgroundImageFix" result="effect1_dropShadow_13_110"/>
<feBlend mode="normal" in="SourceGraphic" in2="effect1_dropShadow_13_110" result="shape"/>
</filter>
</defs>
</svg>
