<svg width="177" height="48" viewBox="0 0 177 48" fill="none" xmlns="http://www.w3.org/2000/svg">
<g filter="url(#filter0_d_13_98)">
<path d="M170.665 0.335938H6.33203C3.01832 0.335938 0.332031 3.02223 0.332031 6.33594V41.6693C0.332031 44.983 3.01832 47.6693 6.33203 47.6693H170.665C173.979 47.6693 176.665 44.983 176.665 41.6693V6.33594C176.665 3.02223 173.979 0.335938 170.665 0.335938Z" fill="white"/>
<path d="M170.665 0.335938H6.33203C3.01832 0.335938 0.332031 3.02223 0.332031 6.33594V41.6693C0.332031 44.983 3.01832 47.6693 6.33203 47.6693H170.665C173.979 47.6693 176.665 44.983 176.665 41.6693V6.33594C176.665 3.02223 173.979 0.335938 170.665 0.335938Z" stroke="#D1D5DB" stroke-width="0.666667"/>
</g>
<defs>
<filter id="filter0_d_13_98" x="0" y="0" width="177" height="48" filterUnits="userSpaceOnUse" color-interpolation-filters="sRGB">
<feFlood flood-opacity="0" result="BackgroundImageFix"/>
<feColorMatrix in="SourceAlpha" type="matrix" values="0 0 0 0 0 0 0 0 0 0 0 0 0 0 0 0 0 0 127 0" result="hardAlpha"/>
<feOffset/>
<feComposite in2="hardAlpha" operator="out"/>
<feColorMatrix type="matrix" values="0 0 0 0 0 0 0 0 0 0 0 0 0 0 0 0 0 0 0.08 0"/>
<feBlend mode="normal" in2="BackgroundImageFix" result="effect1_dropShadow_13_98"/>
<feBlend mode="normal" in="SourceGraphic" in2="effect1_dropShadow_13_98" result="shape"/>
</filter>
</defs>
</svg>
