<svg width="134" height="52" viewBox="0 0 134 52" fill="none" xmlns="http://www.w3.org/2000/svg">
<g filter="url(#filter0_d_13_173)">
<path d="M128 0H6C2.68629 0 0 2.68629 0 6V46C0 49.3137 2.68629 52 6 52H128C131.314 52 134 49.3137 134 46V6C134 2.68629 131.314 0 128 0Z" fill="#6CACE4"/>
<path d="M128 0H6C2.68629 0 0 2.68629 0 6V46C0 49.3137 2.68629 52 6 52H128C131.314 52 134 49.3137 134 46V6C134 2.68629 131.314 0 128 0Z" stroke="#E5E7EB"/>
</g>
<defs>
<filter id="filter0_d_13_173" x="0" y="0" width="134" height="52" filterUnits="userSpaceOnUse" color-interpolation-filters="sRGB">
<feFlood flood-opacity="0" result="BackgroundImageFix"/>
<feColorMatrix in="SourceAlpha" type="matrix" values="0 0 0 0 0 0 0 0 0 0 0 0 0 0 0 0 0 0 127 0" result="hardAlpha"/>
<feOffset/>
<feComposite in2="hardAlpha" operator="out"/>
<feColorMatrix type="matrix" values="0 0 0 0 0 0 0 0 0 0 0 0 0 0 0 0 0 0 0.08 0"/>
<feBlend mode="normal" in2="BackgroundImageFix" result="effect1_dropShadow_13_173"/>
<feBlend mode="normal" in="SourceGraphic" in2="effect1_dropShadow_13_173" result="shape"/>
</filter>
</defs>
</svg>
