<svg width="36" height="36" viewBox="0 0 36 36" fill="none" xmlns="http://www.w3.org/2000/svg">
<path d="M35.0063 12.2208L19.316 7.40014C18.461 7.13745 17.5385 7.13745 16.684 7.40014L0.993094 12.2208C-0.331031 12.6275 -0.331031 14.3785 0.993094 14.7852L3.72853 15.6256C3.12834 16.3675 2.75934 17.2726 2.72278 18.2637C2.18109 18.5742 1.79972 19.1345 1.79972 19.8033C1.79972 20.4096 2.11922 20.9198 2.57934 21.2461L1.14328 27.7081C1.01841 28.27 1.44591 28.8033 2.02134 28.8033H5.17753C5.75353 28.8033 6.18103 28.27 6.05616 27.7081L4.62009 21.2461C5.08022 20.9198 5.39972 20.4096 5.39972 19.8033C5.39972 19.1525 5.03578 18.608 4.51884 18.2918C4.56159 17.447 4.99359 16.7 5.68266 16.2263L16.6835 19.6064C17.1931 19.7628 18.1707 19.958 19.3154 19.6064L35.0063 14.7858C36.331 14.3785 36.331 12.628 35.0063 12.2208ZM19.8442 21.3271C18.2393 21.8198 16.8719 21.5476 16.1547 21.3271L7.99734 18.8211L7.19972 25.2033C7.19972 27.1917 12.035 28.8033 17.9997 28.8033C23.9645 28.8033 28.7997 27.1917 28.7997 25.2033L28.0021 18.8206L19.8442 21.3271Z" fill="#4F46E5"/>
</svg>
