<svg width="192" height="60" viewBox="0 0 192 60" fill="none" xmlns="http://www.w3.org/2000/svg">
<g filter="url(#filter0_d_13_207)">
<path d="M162 0H30C13.4315 0 0 13.4315 0 30C0 46.5685 13.4315 60 30 60H162C178.569 60 192 46.5685 192 30C192 13.4315 178.569 0 162 0Z" fill="#4F46E5"/>
<path d="M162 0H30C13.4315 0 0 13.4315 0 30C0 46.5685 13.4315 60 30 60H162C178.569 60 192 46.5685 192 30C192 13.4315 178.569 0 162 0Z" stroke="#E5E7EB"/>
</g>
<defs>
<filter id="filter0_d_13_207" x="0" y="0" width="192" height="60" filterUnits="userSpaceOnUse" color-interpolation-filters="sRGB">
<feFlood flood-opacity="0" result="BackgroundImageFix"/>
<feColorMatrix in="SourceAlpha" type="matrix" values="0 0 0 0 0 0 0 0 0 0 0 0 0 0 0 0 0 0 127 0" result="hardAlpha"/>
<feOffset/>
<feComposite in2="hardAlpha" operator="out"/>
<feColorMatrix type="matrix" values="0 0 0 0 0 0 0 0 0 0 0 0 0 0 0 0 0 0 0.08 0"/>
<feBlend mode="normal" in2="BackgroundImageFix" result="effect1_dropShadow_13_207"/>
<feBlend mode="normal" in="SourceGraphic" in2="effect1_dropShadow_13_207" result="shape"/>
</filter>
</defs>
</svg>
