<svg width="30" height="30" viewBox="0 0 30 30" fill="none" xmlns="http://www.w3.org/2000/svg">
<path d="M29.172 10.1814L16.0966 6.16418C15.3841 5.94527 14.6154 5.94527 13.9034 6.16418L0.827578 10.1814C-0.275859 10.5203 -0.275859 11.9795 0.827578 12.3184L3.10711 13.0187C2.60695 13.637 2.29945 14.3912 2.26898 15.2171C1.81758 15.4759 1.49977 15.9428 1.49977 16.5001C1.49977 17.0054 1.76602 17.4306 2.14945 17.7025L0.952734 23.0875C0.848672 23.5557 1.20492 24.0001 1.68445 24.0001H4.31461C4.79461 24.0001 5.15086 23.5557 5.0468 23.0875L3.85008 17.7025C4.23352 17.4306 4.49977 17.0054 4.49977 16.5001C4.49977 15.9578 4.19648 15.504 3.7657 15.2406C3.80133 14.5365 4.16133 13.914 4.73555 13.5193L13.9029 16.3361C14.3276 16.4664 15.1423 16.629 16.0962 16.3361L29.172 12.3189C30.2759 11.9795 30.2759 10.5207 29.172 10.1814ZM16.5368 17.77C15.1995 18.1806 14.0599 17.9537 13.4623 17.77L6.66445 15.6817L5.99977 21.0001C5.99977 22.6572 10.0291 24.0001 14.9998 24.0001C19.9704 24.0001 23.9998 22.6572 23.9998 21.0001L23.3351 15.6812L16.5368 17.77Z" fill="#4F46E5"/>
</svg>
