<svg width="384" height="52" viewBox="0 0 384 52" fill="none" xmlns="http://www.w3.org/2000/svg">
<g filter="url(#filter0_d_13_288)">
<path d="M378 0H6C2.68629 0 0 2.68629 0 6V46C0 49.3137 2.68629 52 6 52H378C381.314 52 384 49.3137 384 46V6C384 2.68629 381.314 0 378 0Z" fill="#6CACE4"/>
<path d="M378 0H6C2.68629 0 0 2.68629 0 6V46C0 49.3137 2.68629 52 6 52H378C381.314 52 384 49.3137 384 46V6C384 2.68629 381.314 0 378 0Z" stroke="#E5E7EB"/>
</g>
<defs>
<filter id="filter0_d_13_288" x="0" y="0" width="384" height="52" filterUnits="userSpaceOnUse" color-interpolation-filters="sRGB">
<feFlood flood-opacity="0" result="BackgroundImageFix"/>
<feColorMatrix in="SourceAlpha" type="matrix" values="0 0 0 0 0 0 0 0 0 0 0 0 0 0 0 0 0 0 127 0" result="hardAlpha"/>
<feOffset/>
<feComposite in2="hardAlpha" operator="out"/>
<feColorMatrix type="matrix" values="0 0 0 0 0 0 0 0 0 0 0 0 0 0 0 0 0 0 0.08 0"/>
<feBlend mode="normal" in2="BackgroundImageFix" result="effect1_dropShadow_13_288"/>
<feBlend mode="normal" in="SourceGraphic" in2="effect1_dropShadow_13_288" result="shape"/>
</filter>
</defs>
</svg>
