<svg width="384" height="54" viewBox="0 0 384 54" fill="none" xmlns="http://www.w3.org/2000/svg">
<g filter="url(#filter0_d_13_285)">
<path d="M377.665 0.335938H6.33203C3.01832 0.335938 0.332031 3.02223 0.332031 6.33594V47.6693C0.332031 50.983 3.01832 53.6693 6.33203 53.6693H377.665C380.979 53.6693 383.665 50.983 383.665 47.6693V6.33594C383.665 3.02223 380.979 0.335938 377.665 0.335938Z" fill="white"/>
<path d="M377.665 0.335938H6.33203C3.01832 0.335938 0.332031 3.02223 0.332031 6.33594V47.6693C0.332031 50.983 3.01832 53.6693 6.33203 53.6693H377.665C380.979 53.6693 383.665 50.983 383.665 47.6693V6.33594C383.665 3.02223 380.979 0.335938 377.665 0.335938Z" stroke="#D1D5DB" stroke-width="0.666667"/>
</g>
<defs>
<filter id="filter0_d_13_285" x="0" y="0" width="384" height="54" filterUnits="userSpaceOnUse" color-interpolation-filters="sRGB">
<feFlood flood-opacity="0" result="BackgroundImageFix"/>
<feColorMatrix in="SourceAlpha" type="matrix" values="0 0 0 0 0 0 0 0 0 0 0 0 0 0 0 0 0 0 127 0" result="hardAlpha"/>
<feOffset/>
<feComposite in2="hardAlpha" operator="out"/>
<feColorMatrix type="matrix" values="0 0 0 0 0 0 0 0 0 0 0 0 0 0 0 0 0 0 0.08 0"/>
<feBlend mode="normal" in2="BackgroundImageFix" result="effect1_dropShadow_13_285"/>
<feBlend mode="normal" in="SourceGraphic" in2="effect1_dropShadow_13_285" result="shape"/>
</filter>
</defs>
</svg>
